<svg xmlns="http://www.w3.org/2000/svg" enable-background="new 0 0 64 64" viewBox="0 0 64 64" id="internet"><path fill="#ff9d23" d="M7.6,6.8c-0.2,0-0.3-0.1-0.4-0.2c-0.2-0.2-0.2-0.6,0-0.9l1.4-1.4C8.8,4,9.2,4,9.5,4.3l1.3,1.3c0.2,0.2,0.2,0.6,0,0.9c-0.2,0.2-0.6,0.2-0.9,0L9,5.6l-1,1C7.9,6.7,7.7,6.8,7.6,6.8z"></path><path fill="#9495fa" d="M60.7 38.2c-.2 0-.3-.1-.4-.2-.2-.2-.2-.6 0-.9l1.4-1.4c.2-.2.6-.2.9 0l1.3 1.3c.2.2.2.6 0 .9-.2.2-.6.2-.9 0L62.1 37l-1 1C61 38.1 60.8 38.2 60.7 38.2zM.6 35.5c-.2 0-.3-.1-.4-.2-.2-.2-.2-.6 0-.9l1.9-1.9c.2-.2.6-.2.9 0 .2.2.2.6 0 .9l-1.9 1.9C1 35.4.8 35.5.6 35.5z"></path><path fill="#ff4b4d" d="M52.1,4.6c-0.2,0-0.3-0.1-0.4-0.2c-0.2-0.2-0.2-0.6,0-0.9l2.2-2.2c0.2-0.2,0.6-0.2,0.9,0C55,1.6,55,2,54.7,2.2l-2.2,2.2C52.4,4.6,52.2,4.6,52.1,4.6z"></path><path fill="#0000db" d="M15.8,62.8c-0.2,0-0.3-0.1-0.4-0.2c-0.2-0.2-0.2-0.6,0-0.9l2.2-2.2c0.2-0.2,0.6-0.2,0.9,0c0.2,0.2,0.2,0.6,0,0.9l-2.2,2.2C16.1,62.8,16,62.8,15.8,62.8z"></path><path fill="#ff9d23" d="M50.3,60.7c-0.2,0-0.3-0.1-0.4-0.2c-0.2-0.2-0.2-0.6,0-0.9l2.2-2.2c0.2-0.2,0.6-0.2,0.9,0c0.2,0.2,0.2,0.6,0,0.9l-2.2,2.2C50.7,60.6,50.5,60.7,50.3,60.7z"></path><linearGradient id="a" x1="32.514" x2="32.514" y1="-1781.879" y2="-1824.129" gradientTransform="matrix(1 0 0 -1 0 -1763.626)" gradientUnits="userSpaceOnUse"><stop offset="0" stop-color="#fff" stop-opacity=".25"></stop><stop offset="1" stop-color="#f86c66" stop-opacity=".9"></stop></linearGradient><path fill="url(#a)" d="M43.6,56.6c-1.3,1.3-2.6,2.6-4.3,3.3c-2,0.8-4.2,0.7-6.3,0.1c-2-0.6-3.9-1.7-5.8-2.8c-5.3-3.1-10.6-6.1-15.9-9.2c-1.2-0.7-2.4-1.4-3.2-2.4c-1.5-2-1.5-4.8-0.4-7.1c1.1-2.3,3-4,5-5.5c2-1.5,4.1-2.9,5.9-4.6c1.6-1.6,2.9-3.6,4.6-5.3c4.9-5,13.2-6.3,19.5-3.2c4.6,2.3,7.8,6.5,10.9,10.6c2.3,3,4.6,6.2,4.6,9.9c0,3.6-2.4,6.8-5.6,8.1C48.9,50,46.2,53.8,43.6,56.6z"></path><path fill="#ff9d23" stroke="#0000db" stroke-linecap="round" stroke-linejoin="round" stroke-miterlimit="10" stroke-width="1.327" d="M56.5,26.9c0,10-6.1,18.6-14.8,22.2c0,0-3.9-6.3-11.7-4.4c-5.9,1.4-5.8-3.3-5.3-5.8c0.2-1,0-2-0.4-2.9c-1.1-2.6-2.9-7.6,0.2-7.4c0,0,5.9,1.7,6.7-10.3c0.1-0.8,0.8-1.3,1.6-1.1c1.7,0.5,4.4,2.3,4.8,9c0.6,10.1,14.1,11.8,14.2,3.2C51,21.5,56,22.1,56,22.1C56.3,23.6,56.5,25.2,56.5,26.9z"></path><path fill="#9495fa" stroke="#0000db" stroke-linecap="round" stroke-linejoin="round" stroke-miterlimit="10" stroke-width="1.327" d="M56,22.1c0,0-5-0.5-4.3,7.4c-0.1,8.6-13.6,6.9-14.2-3.2c-0.4-6.7-3.1-8.5-4.8-9c-0.8-0.2-1.5,0.4-1.6,1.1c-0.8,11.9-6.7,10.3-6.7,10.3c-3.1-0.2-1.3,4.8-0.2,7.4c0.4,0.9,0.5,1.9,0.4,2.9c-0.4,2.5-0.5,7.2,5.3,5.8c7.8-1.9,11.7,4.4,11.7,4.4c-2.8,1.2-5.9,1.8-9.2,1.8c-9.9,0-18.3-5.9-22-14.4c0.3-2.6,1.7-8.6,7.6-10.5c3.4-1.3-3.8-9.7-5.8-12C16.6,7.3,24,2.9,32.5,2.9C44.1,2.9,53.8,11.1,56,22.1z"></path><path fill="#ff9d23" stroke="#0000db" stroke-linecap="round" stroke-linejoin="round" stroke-miterlimit="10" stroke-width="1.327" d="M18.1,26c-6,1.9-7.3,7.9-7.6,10.5c-1.3-2.9-2-6.2-2-9.6c0-4.8,1.4-9.2,3.8-12.9C14.3,16.3,21.6,24.6,18.1,26z"></path></svg>